<svg width="460" height="100" viewBox="0 0 460 100" fill="none" xmlns="http://www.w3.org/2000/svg">
<g clip-path="url(#clip0_646_2)">
<rect width="100" height="100" fill="#1F3638" fill-opacity="0.09"/>
<path d="M106.941 -6.45117C106.941 -6.45117 84.8641 5.7142 66.7637 26.8926L107.835 13.6387L108.281 30.1572L52.2432 48.2402C48.5523 55.258 45.8485 62.0029 43.8691 68.208L107.835 47.5664L108.281 64.085L39.6445 86.2334C38.1533 96.1845 38.6344 102.435 38.6377 102.478L22.1191 108.281C22.1173 108.248 21.7611 101.848 23.2402 91.5273L-3.77246 100.245L-4.21875 83.7275L27.0469 73.6367C28.7503 67.5889 31.0323 61.0056 34.083 54.1006L-3.77246 66.3174L-4.21875 49.7998L44.8857 33.9521L44.8877 33.9512C69.6644 -4.88815 106.495 -22.9687 106.495 -22.9687L106.941 -6.45117Z" fill="white"/>
</g>
<rect x="0.5" y="0.5" width="99" height="99" stroke="white" stroke-opacity="0.07"/>
<path d="M451.12 62.9798H459.638C457.7 70.3263 451.525 73.9995 441.114 73.9995H439.897C433.587 73.9995 428.833 72.6474 425.633 69.9432C422.433 67.1939 420.833 62.6643 420.833 56.3544V54.4615C420.833 48.1516 422.433 43.6446 425.633 40.9403C428.833 38.1911 433.587 36.8164 439.897 36.8164H440.979C447.289 36.8164 452.021 38.146 455.176 40.8051C458.376 43.4643 459.976 47.9488 459.976 54.2587V57.3009H429.283C429.418 61.3122 430.365 63.9939 432.123 65.346C433.925 66.653 436.72 67.3065 440.506 67.3065C443.571 67.3065 445.914 66.9911 447.537 66.3601C449.159 65.7291 450.354 64.6023 451.12 62.9798ZM440.438 42.9685C436.878 42.9685 434.196 43.5544 432.393 44.7263C430.635 45.8981 429.621 48.1967 429.351 51.622H451.593V51.3516C451.593 48.0615 450.556 45.853 448.483 44.7263C446.41 43.5544 443.728 42.9685 440.438 42.9685Z" fill="white"/>
<path d="M416.48 26V73.3239H408.029V26H416.48Z" fill="white"/>
<path d="M371.303 73.3239H362.919V26H371.303V43.1718H371.573C373.511 38.9352 377.95 36.8169 384.891 36.8169H385.905C391.539 36.8169 395.911 38.1465 399.021 40.8056C402.131 43.4648 403.686 47.9493 403.686 54.2592V56.6254C403.686 62.9352 402.131 67.4197 399.021 70.0789C395.911 72.693 391.539 74 385.905 74H384.891C377.95 74 373.511 71.8817 371.573 67.6451H371.303V73.3239ZM383.269 66.8338C387.505 66.8338 390.548 66.1352 392.395 64.738C394.288 63.2958 395.235 60.3887 395.235 56.0169V54.8C395.235 50.4282 394.288 47.5437 392.395 46.1465C390.548 44.7042 387.505 43.9831 383.269 43.9831C379.032 43.9831 375.967 44.7042 374.074 46.1465C372.226 47.5887 371.303 50.4732 371.303 54.8V56.0845C371.303 60.3662 372.249 63.2282 374.142 64.6704C376.035 66.1127 379.077 66.8338 383.269 66.8338Z" fill="white"/>
<path d="M357.951 51.1488V73.3234H349.568V67.577H349.298C347.405 71.8587 342.582 73.9995 334.83 73.9995C329.963 73.9995 326.244 73.0756 323.675 71.2277C321.106 69.3347 319.822 66.5629 319.822 62.9122V62.5065C319.822 55.746 323.901 52.208 332.058 51.8925L349.501 51.1488V50.4727C349.501 47.4981 348.712 45.515 347.134 44.5234C345.602 43.4868 343.056 42.9685 339.495 42.9685C336.611 42.9685 334.425 43.3516 332.937 44.1178C331.45 44.8389 330.391 46.0784 329.76 47.8361H321.242C322.098 44.0502 323.946 41.2784 326.785 39.5206C329.625 37.7178 333.839 36.8164 339.427 36.8164H340.577C346.706 36.8164 351.123 37.8756 353.827 39.9939C356.577 42.1122 357.951 45.8305 357.951 51.1488ZM328.34 62.2361V62.5741C328.34 66.2699 331.315 68.1178 337.264 68.1178C341.185 68.1178 344.205 67.3516 346.323 65.8192C348.442 64.2418 349.501 62.0108 349.501 59.1263V56.7601L334.83 57.3685C332.532 57.4587 330.864 57.8868 329.827 58.653C328.836 59.4192 328.34 60.6136 328.34 62.2361Z" fill="white"/>
<path d="M317.568 66.6986V73.3239H312.16C307.112 73.3239 303.574 72.4225 301.546 70.6197C299.562 68.7718 298.571 65.6169 298.571 61.1549V44.1183H290.391V37.493H298.571V26H307.022V37.493H317.568V44.1183H307.022V59.4648C307.022 62.4845 307.562 64.4451 308.644 65.3465C309.726 66.2479 311.822 66.6986 314.931 66.6986H317.568Z" fill="white"/>
<path d="M279.411 26H287.862V32.6254H279.411V26ZM279.411 37.493H287.862V73.3239H279.411V37.493Z" fill="white"/>
<path d="M277.324 37.4927L261.91 73.3237H250.619L235.273 37.4927H244.603L256.366 65.549H256.839L268.603 37.4927H277.324Z" fill="white"/>
<path d="M226.585 62.9798H235.103C233.165 70.3263 226.991 73.9995 216.58 73.9995H215.363C209.053 73.9995 204.298 72.6474 201.098 69.9432C197.898 67.1939 196.298 62.6643 196.298 56.3544V54.4615C196.298 48.1516 197.898 43.6446 201.098 40.9403C204.298 38.1911 209.053 36.8164 215.363 36.8164H216.444C222.754 36.8164 227.487 38.146 230.642 40.8051C233.842 43.4643 235.442 47.9488 235.442 54.2587V57.3009H204.749C204.884 61.3122 205.83 63.9939 207.588 65.346C209.391 66.653 212.185 67.3065 215.971 67.3065C219.036 67.3065 221.38 66.9911 223.002 66.3601C224.625 65.7291 225.819 64.6023 226.585 62.9798ZM215.903 42.9685C212.343 42.9685 209.661 43.5544 207.858 44.7263C206.101 45.8981 205.087 48.1967 204.816 51.622H227.058V51.3516C227.058 48.0615 226.022 45.853 223.949 44.7263C221.875 43.5544 219.194 42.9685 215.903 42.9685Z" fill="white"/>
<path d="M192.405 50.8108V73.3234H184.022V52.5009C184.022 49.1657 183.233 46.9347 181.656 45.808C180.124 44.6361 177.825 44.0502 174.76 44.0502C171.47 44.0502 168.901 44.7488 167.053 46.146C165.205 47.4981 164.281 50.1122 164.281 53.9882V73.3234H155.831V37.4925H164.281V43.577H164.619C166.693 39.0699 170.952 36.8164 177.397 36.8164C182.174 36.8164 185.87 37.8756 188.484 39.9939C191.098 42.0671 192.405 45.6727 192.405 50.8108Z" fill="white"/>
<path d="M149.127 26V73.3239H140V26H149.127Z" fill="white"/>
<defs>
<clipPath id="clip0_646_2">
<rect width="100" height="100" fill="white"/>
</clipPath>
</defs>
</svg>
