<svg width="476" height="100" viewBox="0 0 476 100" fill="none" xmlns="http://www.w3.org/2000/svg">
<g clip-path="url(#clip0_646_2)">
<rect width="100" height="100" fill="#1F3638" fill-opacity="0.09"/>
<path d="M106.941 -6.45117C106.941 -6.45117 84.8641 5.7142 66.7637 26.8926L107.835 13.6387L108.281 30.1572L52.2432 48.2402C48.5523 55.258 45.8485 62.0029 43.8691 68.208L107.835 47.5664L108.281 64.085L39.6445 86.2334C38.1533 96.1845 38.6344 102.435 38.6377 102.478L22.1191 108.281C22.1173 108.248 21.7611 101.848 23.2402 91.5273L-3.77246 100.245L-4.21875 83.7275L27.0469 73.6367C28.7503 67.5889 31.0323 61.0056 34.083 54.1006L-3.77246 66.3174L-4.21875 49.7998L44.8857 33.9521L44.8877 33.9512C69.6644 -4.88815 106.495 -22.9687 106.495 -22.9687L106.941 -6.45117Z" fill="white"/>
</g>
<rect x="0.5" y="0.5" width="99" height="99" stroke="white" stroke-opacity="0.07"/>
<path d="M157.974 7.38782V27.2998H149.69V7.38782H140V0.699824H167.74V7.38782H157.974Z" fill="white"/>
<path d="M186.369 27.6798H184.241C178.744 27.6798 174.83 26.7172 172.499 24.7918C170.168 22.8665 169.003 19.5732 169.003 14.9118V13.1258C169.003 8.46449 170.168 5.17116 172.499 3.24583C174.83 1.29516 178.744 0.319824 184.241 0.319824H186.369C191.866 0.319824 195.78 1.29516 198.111 3.24583C200.467 5.17116 201.645 8.46449 201.645 13.1258V14.9118C201.645 19.5478 200.467 22.8412 198.111 24.7918C195.78 26.7172 191.866 27.6798 186.369 27.6798ZM184.887 21.3718H185.761C187.332 21.3718 188.611 21.2452 189.599 20.9918C190.612 20.7132 191.372 20.2698 191.879 19.6618C192.411 19.0285 192.766 18.3318 192.943 17.5718C193.12 16.7865 193.209 15.7858 193.209 14.5698V13.4298C193.209 12.1885 193.12 11.1878 192.943 10.4278C192.766 9.64249 192.411 8.94582 191.879 8.33782C191.372 7.72983 190.612 7.29916 189.599 7.04582C188.611 6.76716 187.332 6.62782 185.761 6.62782H184.887C181.847 6.62782 179.846 7.14716 178.883 8.18582C177.92 9.19916 177.439 10.9472 177.439 13.4298V14.5698C177.439 15.8112 177.528 16.8118 177.705 17.5718C177.882 18.3318 178.224 19.0285 178.731 19.6618C179.263 20.2698 180.023 20.7132 181.011 20.9918C182.024 21.2452 183.316 21.3718 184.887 21.3718Z" fill="white"/>
<path d="M213.372 20.1558V27.2998H205.088V0.699824H213.372V11.3778H213.638L226.596 0.699824H237.73L224.43 11.3778L238.072 27.2998H227.09L217.97 16.6598H217.666L213.372 20.1558Z" fill="white"/>
<path d="M265.88 21.2958V27.2998H240.268V0.699824H265.88V6.70382H248.552V10.9598H265.88V17.0018H248.552V21.2958H265.88Z" fill="white"/>
<path d="M302.529 0.699824V27.2998H290.027L277.905 8.79383H277.601V27.2998H269.659V0.699824H282.161L294.283 19.2438H294.587V0.699824H302.529Z" fill="white"/>
<path d="M330.541 27.6798H328.299C324.702 27.6798 321.928 27.3125 319.977 26.5778C318.052 25.8178 316.684 24.6145 315.873 22.9678C315.088 21.2958 314.695 18.9018 314.695 15.7858V0.699824H323.131V15.4438C323.131 17.8252 323.524 19.3958 324.309 20.1558C325.12 20.9158 326.678 21.2958 328.983 21.2958H329.819C332.15 21.2958 333.708 20.9158 334.493 20.1558C335.279 19.3958 335.671 17.8252 335.671 15.4438V0.699824H344.107V15.7858C344.107 18.9018 343.702 21.2958 342.891 22.9678C342.106 24.6398 340.751 25.8432 338.825 26.5778C336.9 27.3125 334.139 27.6798 330.541 27.6798Z" fill="white"/>
<path d="M362.636 27.6798H361.306C356.974 27.6798 353.542 27.0718 351.008 25.8558C348.5 24.6398 347.031 22.5625 346.6 19.6238H355.416C355.771 20.5358 356.455 21.1438 357.468 21.4478C358.507 21.7518 360.116 21.9038 362.294 21.9038C364.574 21.9038 366.183 21.7138 367.12 21.3338C368.058 20.9538 368.539 20.3078 368.564 19.3958V19.0918C368.564 18.3572 368.311 17.8378 367.804 17.5338C367.298 17.2045 366.386 17.0272 365.068 17.0018L357.696 16.7358C353.896 16.5838 351.211 15.9505 349.64 14.8358C348.07 13.6958 347.284 11.8465 347.284 9.28782V9.02182C347.284 5.95649 348.374 3.73982 350.552 2.37182C352.756 1.00382 356.29 0.319824 361.154 0.319824H362.18C370.971 0.319824 375.784 3.11916 376.62 8.71782H367.804C367.5 7.72983 366.854 7.04583 365.866 6.66582C364.878 6.28582 363.396 6.09582 361.42 6.09582C359.242 6.09582 357.747 6.28582 356.936 6.66582C356.126 7.02049 355.72 7.65382 355.72 8.56582V8.67982C355.72 9.41449 355.961 9.94649 356.442 10.2758C356.949 10.6052 357.861 10.7952 359.178 10.8458L366.512 11.0738C370.287 11.1752 372.96 11.8085 374.53 12.9738C376.126 14.1138 376.924 15.9378 376.924 18.4458V18.7118C376.924 21.9798 375.772 24.2978 373.466 25.6658C371.186 27.0085 367.576 27.6798 362.636 27.6798Z" fill="white"/>
<path d="M401.748 0.699824L413.946 27.2998H404.598L402.242 21.9798H388.334L386.016 27.2998H377.01L389.17 0.699824H401.748ZM395.44 6.47582H395.136L390.956 15.9758H399.62L395.44 6.47582Z" fill="white"/>
<path d="M431.105 27.6798H428.977C423.48 27.6798 419.566 26.7172 417.235 24.7918C414.905 22.8665 413.739 19.5858 413.739 14.9498V13.0498C413.739 8.41382 414.905 5.13316 417.235 3.20783C419.566 1.28249 423.48 0.319824 428.977 0.319824H431.105C435.716 0.319824 439.174 0.965824 441.479 2.25782C443.81 3.54982 445.33 5.70316 446.039 8.71782H437.109C436.628 7.93249 435.893 7.38782 434.905 7.08383C433.943 6.77982 432.448 6.62782 430.421 6.62782H429.471C427.926 6.62782 426.659 6.76716 425.671 7.04582C424.709 7.29916 423.974 7.72983 423.467 8.33782C422.961 8.94582 422.619 9.62982 422.441 10.3898C422.264 11.1498 422.175 12.1505 422.175 13.3918V14.7218C422.175 15.9632 422.264 16.9638 422.441 17.7238C422.619 18.4838 422.961 19.1678 423.467 19.7758C423.974 20.3838 424.709 20.8145 425.671 21.0678C426.634 21.3212 427.901 21.4478 429.471 21.4478H430.573C433.259 21.4478 435.108 21.1565 436.121 20.5738C437.16 19.9658 437.717 18.8258 437.793 17.1538H428.863V11.3018H446.153V15.3678C446.153 19.8518 444.963 23.0312 442.581 24.9058C440.225 26.7552 436.4 27.6798 431.105 27.6798Z" fill="white"/>
<path d="M475.214 21.2958V27.2998H449.602V0.699824H475.214V6.70382H457.886V10.9598H475.214V17.0018H457.886V21.2958H475.214Z" fill="white"/>
<path d="M150.325 56.0297V71.6797H148.225V56.0297H140.55V54.1797H158V56.0297H150.325ZM172.904 63.2797V71.6797H170.904V63.6797C170.904 62.2297 170.546 61.238 169.829 60.7047C169.112 60.1547 168.129 59.8797 166.879 59.8797C163.812 59.8797 162.279 61.338 162.279 64.2547V71.6797H160.279V54.1797H162.279V60.7047H162.379C163.179 59.0214 164.854 58.1797 167.404 58.1797C171.071 58.1797 172.904 59.8797 172.904 63.2797ZM187.174 68.0797H189.199C188.516 70.6464 186.366 71.9297 182.749 71.9297H182.299C180.116 71.9297 178.458 71.4297 177.324 70.4297C176.208 69.4297 175.649 67.7964 175.649 65.5297V64.6047C175.649 62.3214 176.208 60.6797 177.324 59.6797C178.458 58.6797 180.116 58.1797 182.299 58.1797H182.749C184.949 58.1797 186.599 58.6714 187.699 59.6547C188.816 60.638 189.374 62.2797 189.374 64.5797V65.4547H177.624C177.641 67.3714 178.041 68.663 178.824 69.3297C179.624 69.9797 180.858 70.3047 182.524 70.3047C183.808 70.3047 184.808 70.1547 185.524 69.8547C186.258 69.5547 186.808 68.963 187.174 68.0797ZM182.524 59.7047C180.941 59.7047 179.758 59.9964 178.974 60.5797C178.191 61.163 177.749 62.3047 177.649 64.0047H187.399V63.8797C187.399 62.3797 186.999 61.313 186.199 60.6797C185.399 60.0297 184.174 59.7047 182.524 59.7047ZM201.478 65.2547V71.6797H199.378V54.1797H201.478V62.9047H201.603L214.653 54.1797H217.828L207.353 61.1797L218.078 71.6797H215.153L205.678 62.4547H205.578L201.478 65.2547ZM232.036 63.2797V71.6797H230.061V69.3547H229.961C229.644 70.0547 229.053 70.6714 228.186 71.2047C227.336 71.7047 226.053 71.9547 224.336 71.9547C220.636 71.9547 218.786 70.6047 218.786 67.9047V67.7547C218.786 65.288 220.269 63.9964 223.236 63.8797L230.036 63.5797V63.2547C230.036 61.8547 229.686 60.913 228.986 60.4297C228.286 59.9464 227.169 59.7047 225.636 59.7047C224.419 59.7047 223.469 59.888 222.786 60.2547C222.119 60.6214 221.644 61.2464 221.361 62.1297H219.361C219.994 59.4964 222.044 58.1797 225.511 58.1797H225.961C228.044 58.1797 229.578 58.563 230.561 59.3297C231.544 60.0797 232.036 61.3964 232.036 63.2797ZM220.761 67.7047V67.8297C220.761 69.5797 222.094 70.4547 224.761 70.4547C226.461 70.4547 227.761 70.1047 228.661 69.4047C229.578 68.688 230.036 67.663 230.036 66.3297V65.0297L223.661 65.3047C222.661 65.338 221.928 65.5464 221.461 65.9297C220.994 66.313 220.761 66.9047 220.761 67.7047ZM242.131 58.4297H243.381V60.1547H241.856C240.389 60.1547 239.248 60.438 238.431 61.0047C237.614 61.5714 237.206 62.6214 237.206 64.1547V71.6797H235.206V58.4297H237.206V60.6797H237.306C237.923 59.1797 239.531 58.4297 242.131 58.4297ZM259.014 54.1797V71.6797H257.039V69.4547H256.939C256.223 71.1047 254.498 71.9297 251.764 71.9297H251.264C249.164 71.9297 247.564 71.438 246.464 70.4547C245.364 69.4714 244.814 67.838 244.814 65.5547V64.5797C244.814 62.2797 245.364 60.638 246.464 59.6547C247.564 58.6714 249.164 58.1797 251.264 58.1797H251.764C254.498 58.1797 256.223 59.0047 256.939 60.6547H257.039V54.1797H259.014ZM251.914 70.2297C253.664 70.2297 254.956 69.9047 255.789 69.2547C256.623 68.6047 257.039 67.338 257.039 65.4547V64.8047C257.039 63.788 256.923 62.9464 256.689 62.2797C256.473 61.613 256.123 61.113 255.639 60.7797C255.173 60.4297 254.648 60.1964 254.064 60.0797C253.498 59.9464 252.781 59.8797 251.914 59.8797C251.048 59.8797 250.323 59.9464 249.739 60.0797C249.173 60.1964 248.648 60.4297 248.164 60.7797C247.698 61.113 247.348 61.613 247.114 62.2797C246.898 62.9464 246.789 63.788 246.789 64.8047V65.3047C246.789 66.3214 246.898 67.163 247.114 67.8297C247.348 68.4964 247.698 69.0047 248.164 69.3547C248.648 69.688 249.173 69.9214 249.739 70.0547C250.323 70.1714 251.048 70.2297 251.914 70.2297ZM275.103 63.2797V71.6797H273.128V69.3547H273.028C272.711 70.0547 272.119 70.6714 271.253 71.2047C270.403 71.7047 269.119 71.9547 267.403 71.9547C263.703 71.9547 261.853 70.6047 261.853 67.9047V67.7547C261.853 65.288 263.336 63.9964 266.303 63.8797L273.103 63.5797V63.2547C273.103 61.8547 272.753 60.913 272.053 60.4297C271.353 59.9464 270.236 59.7047 268.703 59.7047C267.486 59.7047 266.536 59.888 265.853 60.2547C265.186 60.6214 264.711 61.2464 264.428 62.1297H262.428C263.061 59.4964 265.111 58.1797 268.578 58.1797H269.028C271.111 58.1797 272.644 58.563 273.628 59.3297C274.611 60.0797 275.103 61.3964 275.103 63.2797ZM263.828 67.7047V67.8297C263.828 69.5797 265.161 70.4547 267.828 70.4547C269.528 70.4547 270.828 70.1047 271.728 69.4047C272.644 68.688 273.103 67.663 273.103 66.3297V65.0297L266.728 65.3047C265.728 65.338 264.994 65.5464 264.528 65.9297C264.061 66.313 263.828 66.9047 263.828 67.7047ZM284.547 71.9297H284.322C282.439 71.9297 280.931 71.6547 279.797 71.1047C278.664 70.5547 277.964 69.6297 277.697 68.3297H279.747C280.114 69.6964 281.697 70.3797 284.497 70.3797C286.097 70.3797 287.264 70.2047 287.997 69.8547C288.731 69.5047 289.106 68.8547 289.122 67.9047V67.7547C289.122 67.0714 288.881 66.588 288.397 66.3047C287.931 66.0214 287.097 65.8547 285.897 65.8047L282.447 65.6297C280.747 65.5464 279.597 65.2297 278.997 64.6797C278.381 64.113 278.072 63.3214 278.072 62.3047V62.0047C278.072 59.4547 280.081 58.1797 284.097 58.1797H284.347C286.197 58.1797 287.639 58.4547 288.672 59.0047C289.722 59.5547 290.414 60.4714 290.747 61.7547H288.697C288.414 61.0047 287.922 60.4797 287.222 60.1797C286.522 59.8797 285.522 59.7297 284.222 59.7297C282.822 59.7297 281.781 59.9047 281.097 60.2547C280.414 60.588 280.064 61.1547 280.047 61.9547V62.0797C280.047 62.7797 280.289 63.2714 280.772 63.5547C281.256 63.8214 282.089 63.9797 283.272 64.0297L286.722 64.1797C288.389 64.2464 289.531 64.5797 290.147 65.1797C290.781 65.763 291.097 66.5547 291.097 67.5547V67.8297C291.097 69.3464 290.531 70.413 289.397 71.0297C288.264 71.6297 286.647 71.9297 284.547 71.9297ZM306.522 63.2797V71.6797H304.522V63.6797C304.522 62.2297 304.164 61.238 303.447 60.7047C302.731 60.1547 301.747 59.8797 300.497 59.8797C297.431 59.8797 295.897 61.338 295.897 64.2547V71.6797H293.897V54.1797H295.897V60.7047H295.997C296.797 59.0214 298.472 58.1797 301.022 58.1797C304.689 58.1797 306.522 59.8797 306.522 63.2797ZM320.793 68.0797H322.818C322.134 70.6464 319.984 71.9297 316.368 71.9297H315.918C313.734 71.9297 312.076 71.4297 310.943 70.4297C309.826 69.4297 309.268 67.7964 309.268 65.5297V64.6047C309.268 62.3214 309.826 60.6797 310.943 59.6797C312.076 58.6797 313.734 58.1797 315.918 58.1797H316.368C318.568 58.1797 320.218 58.6714 321.318 59.6547C322.434 60.638 322.993 62.2797 322.993 64.5797V65.4547H311.243C311.259 67.3714 311.659 68.663 312.443 69.3297C313.243 69.9797 314.476 70.3047 316.143 70.3047C317.426 70.3047 318.426 70.1547 319.143 69.8547C319.876 69.5547 320.426 68.963 320.793 68.0797ZM316.143 59.7047C314.559 59.7047 313.376 59.9964 312.593 60.5797C311.809 61.163 311.368 62.3047 311.268 64.0047H321.018V63.8797C321.018 62.3797 320.618 61.313 319.818 60.6797C319.018 60.0297 317.793 59.7047 316.143 59.7047ZM338.932 58.4297L332.957 71.6797H330.182L324.207 58.4297H326.407L331.582 70.0047H331.707L336.882 58.4297H338.932ZM356.065 71.9297H355.69C350.574 71.9297 347.682 70.438 347.015 67.4547H349.215C349.849 69.2714 352.09 70.1797 355.94 70.1797C358.124 70.1797 359.749 69.9214 360.815 69.4047C361.882 68.888 362.415 68.0047 362.415 66.7547V66.5297C362.415 65.5297 362.107 64.8214 361.49 64.4047C360.89 63.988 359.749 63.7464 358.065 63.6797L353.39 63.5047C351.324 63.438 349.849 63.0464 348.965 62.3297C348.099 61.613 347.665 60.5464 347.665 59.1297V58.9797C347.665 57.1797 348.315 55.888 349.615 55.1047C350.932 54.3214 352.849 53.9297 355.365 53.9297H355.79C360.724 53.9297 363.482 55.438 364.065 58.4547H361.89C361.59 57.4047 360.899 56.6797 359.815 56.2797C358.749 55.8797 357.324 55.6797 355.54 55.6797C353.524 55.6797 352.057 55.9297 351.14 56.4297C350.24 56.913 349.79 57.7047 349.79 58.8047V58.8797C349.79 59.8797 350.099 60.588 350.715 61.0047C351.332 61.4214 352.482 61.663 354.165 61.7297L358.815 61.9047C360.899 62.0047 362.374 62.4047 363.24 63.1047C364.107 63.8047 364.54 64.863 364.54 66.2797V66.5047C364.54 67.5547 364.332 68.4464 363.915 69.1797C363.515 69.8964 362.915 70.4547 362.115 70.8547C361.332 71.238 360.449 71.513 359.465 71.6797C358.499 71.8464 357.365 71.9297 356.065 71.9297ZM374.205 71.9297H373.68C371.497 71.9297 369.847 71.4297 368.73 70.4297C367.63 69.4297 367.08 67.8047 367.08 65.5547V64.5797C367.08 62.2964 367.63 60.663 368.73 59.6797C369.847 58.6797 371.497 58.1797 373.68 58.1797H374.205C377.738 58.1797 379.83 59.5297 380.48 62.2297H378.48C378.147 61.3297 377.605 60.713 376.855 60.3797C376.122 60.0464 375.163 59.8797 373.98 59.8797C372.297 59.8797 371.055 60.213 370.255 60.8797C369.455 61.5464 369.055 62.8547 369.055 64.8047V65.3047C369.055 67.2547 369.455 68.563 370.255 69.2297C371.055 69.8964 372.297 70.2297 373.98 70.2297C375.163 70.2297 376.122 70.063 376.855 69.7297C377.605 69.3964 378.147 68.7797 378.48 67.8797H380.48C379.83 70.5797 377.738 71.9297 374.205 71.9297ZM395.806 63.2797V71.6797H393.831V69.3547H393.731C393.414 70.0547 392.822 70.6714 391.956 71.2047C391.106 71.7047 389.822 71.9547 388.106 71.9547C384.406 71.9547 382.556 70.6047 382.556 67.9047V67.7547C382.556 65.288 384.039 63.9964 387.006 63.8797L393.806 63.5797V63.2547C393.806 61.8547 393.456 60.913 392.756 60.4297C392.056 59.9464 390.939 59.7047 389.406 59.7047C388.189 59.7047 387.239 59.888 386.556 60.2547C385.889 60.6214 385.414 61.2464 385.131 62.1297H383.131C383.764 59.4964 385.814 58.1797 389.281 58.1797H389.731C391.814 58.1797 393.347 58.563 394.331 59.3297C395.314 60.0797 395.806 61.3964 395.806 63.2797ZM384.531 67.7047V67.8297C384.531 69.5797 385.864 70.4547 388.531 70.4547C390.231 70.4547 391.531 70.1047 392.431 69.4047C393.347 68.688 393.806 67.663 393.806 66.3297V65.0297L387.431 65.3047C386.431 65.338 385.697 65.5464 385.231 65.9297C384.764 66.313 384.531 66.9047 384.531 67.7047ZM400.975 54.1797V71.6797H398.975V54.1797H400.975ZM415.47 68.0797H417.495C416.812 70.6464 414.662 71.9297 411.045 71.9297H410.595C408.412 71.9297 406.754 71.4297 405.62 70.4297C404.504 69.4297 403.945 67.7964 403.945 65.5297V64.6047C403.945 62.3214 404.504 60.6797 405.62 59.6797C406.754 58.6797 408.412 58.1797 410.595 58.1797H411.045C413.245 58.1797 414.895 58.6714 415.995 59.6547C417.112 60.638 417.67 62.2797 417.67 64.5797V65.4547H405.92C405.937 67.3714 406.337 68.663 407.12 69.3297C407.92 69.9797 409.154 70.3047 410.82 70.3047C412.104 70.3047 413.104 70.1547 413.82 69.8547C414.554 69.5547 415.104 68.963 415.47 68.0797ZM410.82 59.7047C409.237 59.7047 408.054 59.9964 407.27 60.5797C406.487 61.163 406.045 62.3047 405.945 64.0047H415.695V63.8797C415.695 62.3797 415.295 61.313 414.495 60.6797C413.695 60.0297 412.47 59.7047 410.82 59.7047ZM143.825 86.0297H140.325V84.4297H143.825C143.892 82.813 144.317 81.7047 145.1 81.1047C145.867 80.488 147.075 80.1797 148.725 80.1797H150.75V81.7547H149C147.867 81.7547 147.05 81.938 146.55 82.3047C146.05 82.6547 145.8 83.363 145.8 84.4297H150.75V86.0297H145.8V97.6797H143.825V86.0297ZM158.931 97.9297H158.131C155.897 97.9297 154.222 97.4214 153.106 96.4047C151.989 95.388 151.431 93.7547 151.431 91.5047V90.6047C151.431 88.3547 151.989 86.7214 153.106 85.7047C154.222 84.688 155.897 84.1797 158.131 84.1797H158.931C161.164 84.1797 162.839 84.688 163.956 85.7047C165.072 86.7214 165.631 88.3547 165.631 90.6047V91.5297C165.631 93.7797 165.072 95.413 163.956 96.4297C162.839 97.4297 161.164 97.9297 158.931 97.9297ZM156.356 96.0547C156.939 96.1714 157.664 96.2297 158.531 96.2297C159.397 96.2297 160.114 96.1714 160.681 96.0547C161.264 95.9214 161.789 95.688 162.256 95.3547C162.739 95.0047 163.089 94.4964 163.306 93.8297C163.539 93.163 163.656 92.3214 163.656 91.3047V90.8047C163.656 89.788 163.539 88.9464 163.306 88.2797C163.089 87.613 162.739 87.113 162.256 86.7797C161.789 86.4297 161.264 86.1964 160.681 86.0797C160.114 85.9464 159.397 85.8797 158.531 85.8797C157.664 85.8797 156.939 85.9464 156.356 86.0797C155.789 86.1964 155.264 86.4297 154.781 86.7797C154.314 87.113 153.964 87.613 153.731 88.2797C153.514 88.9464 153.406 89.788 153.406 90.8047V91.3047C153.406 92.3214 153.514 93.163 153.731 93.8297C153.964 94.4964 154.314 95.0047 154.781 95.3547C155.264 95.688 155.789 95.9214 156.356 96.0547ZM175.505 84.4297H176.755V86.1547H175.23C173.763 86.1547 172.622 86.438 171.805 87.0047C170.988 87.5714 170.58 88.6214 170.58 90.1547V97.6797H168.58V84.4297H170.58V86.6797H170.68C171.297 85.1797 172.905 84.4297 175.505 84.4297ZM196.226 80.1797L204.926 97.6797H202.576L199.951 92.3797H189.276L186.626 97.6797H184.301L193.001 80.1797H196.226ZM194.676 81.7047H194.551L190.151 90.5547H199.051L194.676 81.7047ZM209.827 80.1797V97.6797H207.727V80.1797H209.827ZM238.914 88.1297V89.7297C238.914 92.4297 238.231 94.4297 236.864 95.7297C235.514 97.0297 233.339 97.6797 230.339 97.6797H220.789V80.1797H230.314C233.314 80.1797 235.497 80.8297 236.864 82.1297C238.231 83.4297 238.914 85.4297 238.914 88.1297ZM229.814 81.9797H222.889V95.8797H229.814C232.464 95.8797 234.289 95.3547 235.289 94.3047C236.289 93.238 236.789 91.5464 236.789 89.2297V88.6547C236.789 87.5047 236.689 86.538 236.489 85.7547C236.289 84.9714 235.931 84.288 235.414 83.7047C234.897 83.1047 234.181 82.6714 233.264 82.4047C232.347 82.1214 231.197 81.9797 229.814 81.9797ZM253.41 94.0797H255.435C254.751 96.6464 252.601 97.9297 248.985 97.9297H248.535C246.351 97.9297 244.693 97.4297 243.56 96.4297C242.443 95.4297 241.885 93.7964 241.885 91.5297V90.6047C241.885 88.3214 242.443 86.6797 243.56 85.6797C244.693 84.6797 246.351 84.1797 248.535 84.1797H248.985C251.185 84.1797 252.835 84.6714 253.935 85.6547C255.051 86.638 255.61 88.2797 255.61 90.5797V91.4547H243.86C243.876 93.3714 244.276 94.663 245.06 95.3297C245.86 95.9797 247.093 96.3047 248.76 96.3047C250.043 96.3047 251.043 96.1547 251.76 95.8547C252.493 95.5547 253.043 94.963 253.41 94.0797ZM248.76 85.7047C247.176 85.7047 245.993 85.9964 245.21 86.5797C244.426 87.163 243.985 88.3047 243.885 90.0047H253.635V89.8797C253.635 88.3797 253.235 87.313 252.435 86.6797C251.635 86.0297 250.41 85.7047 248.76 85.7047ZM271.549 84.4297L265.574 97.6797H262.799L256.824 84.4297H259.024L264.199 96.0047H264.324L269.499 84.4297H271.549ZM279.494 97.9297H279.269C277.385 97.9297 275.877 97.6547 274.744 97.1047C273.61 96.5547 272.91 95.6297 272.644 94.3297H274.694C275.06 95.6964 276.644 96.3797 279.444 96.3797C281.044 96.3797 282.21 96.2047 282.944 95.8547C283.677 95.5047 284.052 94.8547 284.069 93.9047V93.7547C284.069 93.0714 283.827 92.588 283.344 92.3047C282.877 92.0214 282.044 91.8547 280.844 91.8047L277.394 91.6297C275.694 91.5464 274.544 91.2297 273.944 90.6797C273.327 90.113 273.019 89.3214 273.019 88.3047V88.0047C273.019 85.4547 275.027 84.1797 279.044 84.1797H279.294C281.144 84.1797 282.585 84.4547 283.619 85.0047C284.669 85.5547 285.36 86.4714 285.694 87.7547H283.644C283.36 87.0047 282.869 86.4797 282.169 86.1797C281.469 85.8797 280.469 85.7297 279.169 85.7297C277.769 85.7297 276.727 85.9047 276.044 86.2547C275.36 86.588 275.01 87.1547 274.994 87.9547V88.0797C274.994 88.7797 275.235 89.2714 275.719 89.5547C276.202 89.8214 277.035 89.9797 278.219 90.0297L281.669 90.1797C283.335 90.2464 284.477 90.5797 285.094 91.1797C285.727 91.763 286.044 92.5547 286.044 93.5547V93.8297C286.044 95.3464 285.477 96.413 284.344 97.0297C283.21 97.6297 281.594 97.9297 279.494 97.9297Z" fill="#9598B6"/>
<defs>
<clipPath id="clip0_646_2">
<rect width="100" height="100" fill="white"/>
</clipPath>
</defs>
</svg>
